<?xml version="1.0" standalone="no"?>
<!DOCTYPE svg PUBLIC "-//W3C//DTD SVG 20010904//EN"
 "http://www.w3.org/TR/2001/REC-SVG-20010904/DTD/svg10.dtd">
<svg version="1.0" xmlns="http://www.w3.org/2000/svg"
 width="670.000000pt" height="670.000000pt" viewBox="0 0 670.000000 670.000000"
 preserveAspectRatio="xMidYMid meet">
<metadata>
Created by potrace 1.16, written by Peter Selinger 2001-2019
</metadata>
<g transform="translate(0.000000,670.000000) scale(0.100000,-0.100000)"
fill="#000000" stroke="none">
<path d="M3130 5379 c-224 -25 -458 -93 -655 -188 -236 -114 -389 -223 -578
-413 l-127 -128 -65 0 -65 0 -1 -97 c-1 -54 0 -106 1 -117 2 -17 -5 -18 -109
-11 l-111 7 0 -1099 0 -1100 85 -6 c121 -9 444 -51 418 -55 -13 -2 -23 -6 -23
-8 0 -14 125 -145 205 -216 538 -476 1294 -604 1959 -332 186 76 339 170 503
308 102 86 247 241 239 255 -4 7 214 36 419 56 l60 6 -3 1095 -2 1094 -110 0
-110 0 0 110 0 110 -66 0 -66 0 -99 105 c-340 355 -782 572 -1271 625 -112 12
-319 11 -428 -1z m540 -158 c288 -50 572 -169 795 -333 106 -78 60 -69 -61 12
-249 166 -539 276 -819 311 -204 25 -494 8 -683 -40 -211 -54 -467 -170 -621
-281 -96 -70 -148 -80 -57 -12 252 191 594 324 927 361 127 15 386 6 519 -18z
m-1455 -432 c275 -24 501 -101 717 -245 106 -70 251 -202 316 -286 l41 -53 0
-620 c0 -341 5 -800 10 -1020 6 -220 11 -483 11 -584 l0 -183 -40 59 c-54 81
-188 208 -281 266 -203 126 -441 191 -744 204 l-150 6 -1 901 c-1 496 -5 1051
-9 1234 -3 182 -3 332 2 332 4 0 62 -5 128 -11z m2400 -321 c-4 -183 -8 -739
-9 -1235 l-1 -903 -122 0 c-287 0 -562 -72 -765 -200 -116 -73 -193 -142 -267
-240 l-61 -81 0 178 c0 98 5 358 11 578 5 220 10 680 10 1023 l1 622 41 53
c56 73 162 174 249 239 239 180 562 293 846 297 l73 1 -6 -332z m-2607 96 l33
-7 -5 -111 c-10 -199 -18 -1717 -11 -1960 8 -235 8 -236 29 -229 12 3 98 6
191 6 328 -2 595 -76 811 -224 39 -27 82 -61 95 -75 l24 -27 -33 17 c-208 106
-773 242 -1307 316 -44 6 -90 13 -102 16 l-23 4 0 1147 0 1146 133 -6 c73 -4
147 -10 165 -13z m2982 -1129 l0 -1145 -22 -5 c-13 -2 -75 -12 -138 -21 -531
-74 -1068 -206 -1281 -315 -61 -31 -37 -4 64 72 96 72 251 149 370 183 171 49
258 60 478 61 l207 0 7 240 c4 132 3 647 -2 1145 -5 498 -8 907 -7 908 5 7
149 19 237 21 l87 1 0 -1145z"/>
<path d="M5807 3798 c-4 -142 -2 -237 4 -242 13 -14 11 -26 -4 -26 -10 0 -19
-41 -32 -154 -17 -145 -17 -156 -1 -180 16 -25 16 -26 -6 -23 -32 3 -35 -34
-8 -78 23 -37 21 -41 -11 -25 -23 13 -18 23 -53 -125 -14 -60 -34 -140 -45
-177 l-19 -66 25 -37 25 -37 -23 7 c-13 4 -29 10 -34 12 -6 2 -19 -20 -29 -49
-11 -29 -41 -100 -67 -157 -37 -78 -46 -107 -39 -121 8 -15 6 -17 -8 -14 -12
3 -30 -17 -65 -76 -63 -106 -178 -243 -255 -304 -34 -27 -60 -51 -58 -53 7 -7
227 86 316 134 113 61 217 132 314 212 89 75 201 200 189 211 -4 4 -26 13 -48
21 l-40 12 45 12 c94 25 114 39 147 101 29 56 83 194 83 215 0 5 -4 9 -9 9 -5
0 -26 8 -47 17 l-39 17 53 7 c29 4 55 9 56 10 2 2 6 21 9 42 5 32 3 38 -9 33
-29 -11 -124 -19 -124 -10 0 5 16 19 35 31 19 13 52 46 75 74 39 49 40 53 34
107 -10 107 -25 197 -42 265 l-17 67 -37 -25 -37 -25 24 43 c14 23 25 52 25
65 0 47 -132 332 -213 460 l-34 54 -6 -234z m110 -600 c-17 -408 -147 -755
-368 -980 -56 -58 -61 -61 -21 -15 220 250 355 619 379 1037 3 61 8 110 11
110 3 0 2 -69 -1 -152z"/>
<path d="M844 3955 c-57 -97 -135 -254 -174 -353 l-33 -82 25 -50 c27 -55 24
-61 -15 -30 l-26 21 -15 -53 c-22 -74 -46 -233 -46 -298 0 -54 0 -54 71 -123
38 -38 67 -72 64 -75 -3 -3 -32 -1 -65 4 l-60 10 0 -27 c0 -39 24 -59 71 -59
49 0 43 -15 -12 -31 -45 -14 -45 -7 2 -129 56 -145 98 -190 193 -206 39 -6 39
-6 15 -20 -13 -7 -32 -13 -41 -14 -36 0 -25 -21 59 -110 166 -176 392 -324
643 -422 114 -45 119 -44 55 9 -111 93 -216 217 -286 339 -25 44 -36 55 -51
51 -15 -4 -17 -3 -8 8 9 11 -1 43 -44 144 -30 71 -58 141 -62 155 -8 34 -19
40 -45 26 -31 -17 -34 -5 -9 30 l22 31 -25 88 c-14 48 -35 133 -48 189 -20 89
-25 100 -40 91 -34 -18 -39 -9 -16 26 29 42 26 90 -4 82 -23 -6 -23 -3 -4 26
13 20 12 40 -5 172 -11 83 -20 151 -20 153 0 1 -7 2 -15 2 -20 0 -19 16 0 24
13 5 14 17 9 68 -3 35 -9 140 -12 233 l-7 170 -41 -70z m-44 -741 c0 -31 7
-104 16 -163 47 -318 150 -577 315 -793 l79 -103 -60 65 c-196 208 -334 544
-355 860 -3 47 -8 109 -10 138 -3 31 -1 52 5 52 5 0 10 -25 10 -56z"/>
<path d="M5306 3860 c-4 -30 -6 -291 -4 -580 l3 -525 27 110 c45 183 53 257
53 485 0 222 -13 336 -54 495 l-18 70 -7 -55z"/>
<path d="M1366 3832 c-67 -296 -73 -600 -15 -887 47 -241 48 -240 48 383 1
342 -3 572 -8 572 -5 0 -16 -30 -25 -68z"/>
<path d="M1670 2193 c0 -15 136 -182 214 -262 738 -760 1931 -832 2756 -164
141 114 407 410 387 430 -4 3 -45 2 -91 -4 -79 -10 -87 -13 -113 -44 -57 -70
-201 -213 -273 -272 -699 -565 -1693 -568 -2389 -6 -91 73 -212 191 -276 270
-27 32 -37 37 -90 43 -33 4 -75 10 -92 13 -18 3 -33 1 -33 -4z"/>
</g>
</svg>
